
<svg width="32" height="32" viewBox="0 0 32 32" fill="none" xmlns="http://www.w3.org/2000/svg">
                                          <path d="M7.80277 10.6327C9.44232 8.42583 12.0628 7 15.0155 7C19.9761 7 24.0001 11.028 24.0001 16C24.0001 20.972 19.9761 25 15.0155 25C12.0628 25 9.44232 23.5742 7.80277 21.3673C7.47341 20.924 6.84702 20.8316 6.4037 21.161C5.96037 21.4904 5.86799 22.1167 6.19735 22.5601C8.19751 25.2523 11.4026 27 15.0155 27C21.0836 27 26.0001 22.0737 26.0001 16C26.0001 9.92633 21.0836 5 15.0155 5C11.4026 5 8.19751 6.74771 6.19735 9.43993C5.86799 9.88325 5.96037 10.5096 6.4037 10.839C6.84702 11.1684 7.47341 11.076 7.80277 10.6327Z" fill="#4182AA"></path>
                                          <path d="M18.9173 16.7378L18.9205 16.7343L18.9316 16.7221C19.2962 16.316 19.2927 15.6676 18.921 15.2662C18.9119 15.2564 18.9027 15.2468 18.8933 15.2375L15.6797 11.7668C15.3045 11.3616 14.6962 11.3616 14.3209 11.7668C13.9457 12.1721 13.9457 12.8291 14.3209 13.2343L15.9554 14.9996L7 14.9996C6.44772 14.9996 6 15.4473 6 15.9996C6 16.5519 6.44772 16.9996 7 16.9996L15.9572 16.9996L14.3215 18.7662C13.9462 19.1715 13.9462 19.8285 14.3215 20.2338C14.6967 20.639 15.305 20.639 15.6803 20.2338L18.9173 16.7378Z" fill="#4182AA"></path>
                                        </svg>