<svg xmlns="http://www.w3.org/2000/svg" width="99" height="40" viewBox="0 0 99 40" fill="none">
<path d="M35.0561 9.76916C35.0561 8.58952 35.0352 7.42086 35.0651 6.25112C35.0643 5.67327 35.1315 5.09731 35.2656 4.53496C35.8727 2.26802 37.2597 0.687096 39.624 0.204462C40.621 -2.43447e-05 41.6779 0.0846288 42.7437 0.0351562C42.7525 0.219854 42.7636 0.329793 42.7636 0.449627C42.7717 2.97237 42.7798 5.49546 42.788 8.01894C42.788 8.89845 42.7946 9.76696 42.8234 10.6399C42.8309 10.7738 42.8093 10.9077 42.7599 11.0325C42.7107 11.1573 42.6348 11.2701 42.5376 11.3633C41.586 12.3802 40.8758 13.5411 40.5888 14.911C40.0726 17.3791 40.8159 19.4768 42.583 21.2435C42.6609 21.3067 42.7204 21.3892 42.7557 21.4827C42.7909 21.5761 42.8006 21.6773 42.7835 21.7756C42.1764 26.7339 38.5737 30.651 33.6337 31.5602C29.9312 32.2429 26.6165 31.3074 23.8358 28.7689C21.2279 26.3886 20.0525 23.3818 20.1998 19.8792C20.407 14.9165 24.2379 10.5036 29.1447 9.51411C30.9929 9.12964 32.9079 9.20137 34.7216 9.723C34.7959 9.74498 34.8701 9.76367 34.9432 9.78016C34.9811 9.7804 35.0191 9.7767 35.0561 9.76916ZM31.5653 24.6692C34.0369 24.6692 35.7121 22.9971 35.7043 20.5432C35.6966 18.1147 34.0059 16.4502 31.5553 16.4556C29.076 16.4622 27.4253 18.1135 27.4297 20.5861C27.433 23.0311 29.0948 24.6714 31.5653 24.6692Z" fill="#9C9C9C"/>
<path d="M59.981 0C61.1786 0.0868519 62.343 0.0153915 63.4209 0.282543C65.6942 0.84763 66.9794 2.46044 67.5199 4.67242C67.6317 5.17289 67.6835 5.68473 67.6739 6.19726C67.6829 9.31184 67.6739 12.4254 67.6662 15.5421C67.6562 15.6956 67.6827 15.8493 67.7437 15.9907C67.8335 15.8807 67.9276 15.7708 68.0129 15.6499C69.462 13.6849 70.9089 11.7184 72.3536 9.75049C72.4148 9.65052 72.5024 9.56895 72.6067 9.51453C72.7112 9.46012 72.8286 9.43489 72.9463 9.44157C75.7536 9.44157 78.5609 9.41628 81.366 9.3998H81.8026C81.5112 9.73731 81.2596 10.0308 81.0071 10.3222C78.7766 12.8955 76.5427 15.4648 74.3056 18.03C74.1583 18.1982 74.1395 18.3103 74.269 18.5049C76.6753 22.1219 79.0757 25.7419 81.4701 29.3648C81.6817 29.6836 81.9277 29.9804 82.1537 30.2894C82.3199 30.5158 82.4429 30.7565 82.3377 31.049C82.2413 31.3183 82.0873 31.4701 81.7593 31.469C79.0828 31.455 76.4068 31.4524 73.7318 31.4612C73.4936 31.4612 73.3838 31.3711 73.2764 31.1809C71.8103 28.5556 70.3398 25.9332 68.8649 23.3137C68.8029 23.2038 68.7331 23.0938 68.6433 22.9531C68.3254 23.3093 68.0229 23.6248 67.7571 23.9657C67.688 24.086 67.6575 24.2245 67.6695 24.3625C67.6628 26.4286 67.6607 28.4941 67.6628 30.5587C67.6628 31.1996 67.3904 31.4678 66.7367 31.4678H60.9326C60.3244 31.4678 60.0629 31.1864 60.0297 30.5938C59.975 29.6999 60.1727 28.8088 60.6003 28.0202C61.8266 25.6576 61.5796 23.3016 60.2247 21.0346C60.1144 20.8395 60.0519 20.6215 60.042 20.3981C60.0164 19.8484 60.0353 19.2845 60.033 18.7271L59.981 0.570583C59.9798 0.419967 59.981 0.269351 59.981 0Z" fill="#9C9C9C"/>
<path d="M9.26366 19.5817H7.34706C6.63138 19.5817 6.37657 19.3619 6.2957 18.6538C6.14798 17.3345 6.00433 16.0109 5.86474 14.6829C5.81266 14.1859 6.1971 13.7945 6.7344 13.7912C7.6207 13.7846 8.49702 13.7978 9.37777 13.7912C10.3992 13.777 11.3985 13.6318 12.3114 13.1426C13.0869 12.7282 13.6896 12.1532 13.8425 11.2462C14.0252 10.1644 13.4968 9.24637 12.4355 8.77364C11.5492 8.37786 10.6053 8.31519 9.65473 8.37235C7.96856 8.4658 6.46298 9.12544 5.00836 9.9225C4.32038 10.2985 3.97361 10.2303 3.52715 9.60368C2.71471 8.46251 1.90228 7.32133 1.08985 6.18017C0.687699 5.61509 0.757494 5.25998 1.34355 4.8708C3.16045 3.64937 5.19338 2.99524 7.34151 2.63903C8.94767 2.36436 10.5808 2.27839 12.2073 2.38287C14.8739 2.56647 17.3544 3.25139 19.4471 5.01152C21.8069 6.99701 22.6355 10.3985 20.7766 13.313C20.5549 13.6549 20.3412 13.9979 20.093 14.3157C19.6155 14.9291 19.4594 15.6207 19.5124 16.3781C19.5261 16.538 19.5123 16.6989 19.4715 16.8542C18.4169 20.458 18.86 23.8661 20.8009 27.0785C20.9339 27.2984 20.9205 27.4281 20.7665 27.615C19.2953 29.385 17.4119 30.5218 15.2051 31.1331C11.7707 32.0742 8.35743 31.929 4.9585 30.9132C3.41937 30.4646 1.93273 29.8546 0.523735 29.0937C-0.0645392 28.7716 -0.163139 28.2956 0.257849 27.7744C1.17073 26.6406 2.08618 25.5082 3.00424 24.3773C3.46289 23.8111 3.79304 23.7462 4.4234 24.0969C5.67529 24.7951 6.9715 25.3932 8.39841 25.6273C9.59048 25.8219 10.7881 25.933 11.9647 25.5833C13.1832 25.2217 14.1582 24.5455 14.3577 23.1987C14.6168 21.4507 13.5278 19.9699 11.7641 19.6862C10.9454 19.5542 10.1023 19.5873 9.26476 19.5455L9.26366 19.5817Z" fill="#9C9C9C"/>
<path d="M82.9809 9.45508L87.8764 21.0328L87.954 21.025C88.1811 20.2115 88.4105 19.3991 88.6365 18.5866C89.4563 15.6446 90.2738 12.7023 91.0892 9.75961C91.1546 9.52434 91.2621 9.46057 91.4992 9.46168C93.6462 9.47047 95.7943 9.46168 97.9413 9.46168C98.811 9.46168 99.1822 9.92012 98.9163 10.7568C98.3631 12.5047 97.7893 14.2458 97.1947 15.9799C95.7212 20.2951 94.1503 24.5783 92.3157 28.7604C91.5036 30.6106 90.6882 32.4631 89.5749 34.1627C87.9529 36.6397 85.8424 38.5339 82.9675 39.4849C81.9919 39.7922 80.9783 39.9645 79.9552 39.9972C79.141 40.0369 78.8828 39.5696 78.7365 38.9803C78.597 38.4307 78.515 37.8689 78.4042 37.3125C78.2557 36.543 78.1218 35.7679 77.9611 35.0038C77.806 34.2882 78.1484 33.966 78.7365 33.833C81.0432 33.3119 82.6484 31.8826 83.7464 29.8565C83.8084 29.7465 83.7696 29.5399 83.7154 29.4025C82.6643 26.7793 81.6071 24.158 80.5435 21.5384C79.7311 19.5222 78.9187 17.5066 78.1063 15.4918C78.0353 15.3182 78.0087 15.1895 78.1505 15.0267C79.7119 13.2333 81.268 11.4376 82.8191 9.63977C82.8611 9.5859 82.9044 9.53754 82.9809 9.45508Z" fill="#9C9C9C"/>
<path d="M50.7106 31.8565C48.4362 31.8104 46.5007 31.6576 44.6384 31.0088C43.7178 30.6879 42.8492 30.269 42.128 29.606C41.8504 29.3426 41.6016 29.0507 41.3857 28.7353C41.2746 28.5953 41.2223 28.4181 41.2396 28.2408C41.257 28.0634 41.3426 27.8995 41.4788 27.7833C42.4699 26.8518 43.4696 25.9301 44.4778 25.0183C44.8289 24.7006 45.2223 24.7269 45.62 25.0183C47.4967 26.3683 49.6083 26.9247 51.9004 26.7641C52.532 26.719 53.0338 26.3562 53.3661 25.8099C53.6087 25.4096 53.5412 24.9612 53.2088 24.5687C52.8625 24.1637 52.3979 23.8755 51.8794 23.7441C50.5444 23.389 49.1973 23.079 47.8546 22.7547C47.0547 22.5601 46.2349 22.4248 45.4616 22.1533C44.901 21.9587 44.2994 21.6927 43.8939 21.2837C42.734 20.1107 41.6239 18.8815 41.4245 17.1225C41.2583 15.6603 41.6173 14.3476 42.3751 13.0965C43.4065 11.3957 44.9818 10.4964 46.8265 10.005C50.0724 9.1431 53.3074 9.18818 56.5047 10.2535C57.4631 10.5536 58.3381 11.0707 59.0606 11.764C59.4738 12.1719 59.4749 12.549 59.0684 12.958C58.1399 13.8903 57.2096 14.8211 56.2776 15.7504C55.7968 16.2298 55.3603 16.2066 54.8485 15.7438C54.0619 15.0347 53.2177 14.3827 52.1419 14.197C51.0286 14.0036 50.0104 14.2729 49.2216 15.1183C48.5801 15.8065 48.7176 16.5793 49.5241 17.0675C50.2298 17.493 51.0307 17.5864 51.8218 17.7184C53.5584 17.9976 55.2555 18.4796 56.878 19.1542C57.8353 19.5576 58.5055 20.2536 59.0793 21.0583C60.5928 23.1911 60.8874 25.4405 59.6688 27.8096C59.3154 28.4979 58.8024 29.0641 58.2463 29.6017C57.0664 30.7418 55.5663 31.1694 54.0298 31.5179C53.6005 31.6137 53.1652 31.6806 52.7269 31.718C51.9492 31.7894 51.1692 31.8268 50.7106 31.8565Z" fill="#9C9C9C"/>
</svg>